<svg width="53" height="70" viewBox="0 0 53 70" fill="none" xmlns="http://www.w3.org/2000/svg">
<path d="M26.3333 52.9577C28.0793 52.9577 29.7538 52.2641 30.9885 51.0295C32.2231 49.7949 32.9167 48.1204 32.9167 46.3744C32.9167 44.6283 32.2231 42.9538 30.9885 41.7192C29.7538 40.4846 28.0793 39.791 26.3333 39.791C24.5873 39.791 22.9128 40.4846 21.6782 41.7192C20.4436 42.9538 19.75 44.6283 19.75 46.3744C19.75 48.1204 20.4436 49.7949 21.6782 51.0295C22.9128 52.2641 24.5873 52.9577 26.3333 52.9577ZM46.0833 23.3327C47.8293 23.3327 49.5038 24.0263 50.7384 25.2609C51.9731 26.4955 52.6667 28.17 52.6667 29.916V62.8327C52.6667 64.5787 51.9731 66.2532 50.7384 67.4878C49.5038 68.7224 47.8293 69.416 46.0833 69.416H6.58333C4.83732 69.416 3.16283 68.7224 1.92821 67.4878C0.693599 66.2532 0 64.5787 0 62.8327V29.916C0 28.17 0.693599 26.4955 1.92821 25.2609C3.16283 24.0263 4.83732 23.3327 6.58333 23.3327H9.875V16.7493C9.875 12.3843 11.609 8.19809 14.6955 5.11155C17.7821 2.02501 21.9683 0.291016 26.3333 0.291016C28.4947 0.291016 30.6348 0.716723 32.6317 1.54383C34.6285 2.37094 36.4428 3.58325 37.9711 5.11155C39.4994 6.63985 40.7117 8.4542 41.5388 10.451C42.366 12.4478 42.7917 14.588 42.7917 16.7493V23.3327H46.0833ZM26.3333 6.87435C23.7143 6.87435 21.2026 7.91475 19.3507 9.76667C17.4987 11.6186 16.4583 14.1303 16.4583 16.7493V23.3327H36.2083V16.7493C36.2083 14.1303 35.1679 11.6186 33.316 9.76667C31.4641 7.91475 28.9523 6.87435 26.3333 6.87435Z" fill="white"/>
</svg>
