<svg width="83" height="48" viewBox="0 0 83 48" fill="none" xmlns="http://www.w3.org/2000/svg">
<rect width="81" height="46" transform="translate(1 1)" fill="white"/>
<path d="M3.5989 1H79.4011C80.0904 1 80.7514 1.27501 81.2388 1.76454C81.7262 2.25406 82 2.918 82 3.61029V44.3897C82 45.082 81.7262 45.7459 81.2388 46.2355C80.7514 46.725 80.0904 47 79.4011 47H3.5989C2.90963 47 2.24859 46.725 1.7612 46.2355C1.27381 45.7459 1 45.082 1 44.3897V3.61029C1 2.918 1.27381 2.25406 1.7612 1.76454C2.24859 1.27501 2.90963 1 3.5989 1V1Z" stroke="#00043B"/>
<path d="M1.92334 2.47266L42.3113 30.3443C42.3113 30.3443 70.6913 9.76433 80.1914 2.47266" stroke="#00043B" stroke-linecap="round" stroke-linejoin="round"/>
<path d="M2.09351 46.1252L34.633 25.2734" stroke="#00043B" stroke-linecap="round" stroke-linejoin="round"/>
<path d="M80.1787 45.7256L48.2468 26.0254" stroke="#00043B" stroke-linecap="round" stroke-linejoin="round"/>
</svg>
