<svg width="146" height="146" viewBox="0 0 146 146" fill="none" xmlns="http://www.w3.org/2000/svg">
<path d="M104.251 74.9326L84.9969 79.9638C83.7203 80.2974 82.6285 81.1245 81.9617 82.2631C81.2949 83.4016 81.1077 84.7585 81.4413 86.0351C81.7749 87.3117 82.6019 88.4035 83.7405 89.0703C84.8791 89.7371 86.2359 89.9243 87.5125 89.5907L105.125 84.9885C104.743 89.4495 103.365 93.768 101.093 97.626C98.8209 101.484 95.7123 104.783 91.9962 107.28C92.5878 108.6 92.8849 110.032 92.8667 111.478C92.8485 112.923 92.5155 114.348 91.8908 115.652C91.2661 116.956 90.3647 118.108 89.2494 119.028C88.1342 119.948 86.8318 120.614 85.433 120.979C84.0341 121.345 82.5724 121.401 81.1496 121.144C79.7268 120.887 78.377 120.324 77.1943 119.492C76.0116 118.66 75.0243 117.581 74.3012 116.329C73.578 115.077 73.1364 113.682 73.0071 112.242C68.5428 111.884 64.2158 110.528 60.345 108.276C56.4742 106.023 53.1583 102.93 50.6415 99.2255L68.2587 94.6219C69.5353 94.2884 70.6271 93.4613 71.2939 92.3227C71.9607 91.1841 72.148 89.8273 71.8144 88.5507C71.4808 87.2741 70.6537 86.1823 69.5151 85.5155C68.3766 84.8487 67.0197 84.6614 65.7431 84.995L46.4893 90.0262L43.9737 80.3993L63.2275 75.3681C64.5041 75.0345 65.5959 74.2075 66.2627 73.0689C66.9295 71.9303 67.1168 70.5735 66.7832 69.2969C66.4496 68.0203 65.6225 66.9285 64.4839 66.2617C63.3454 65.5948 61.9885 65.4076 60.7119 65.7412L41.4581 70.7724L38.9425 61.1455L58.1963 56.1143C59.4729 55.7807 60.5647 54.9537 61.2315 53.8151C61.8984 52.6765 62.0856 51.3197 61.752 50.0431C61.4184 48.7665 60.5913 47.6747 59.4527 47.0079C58.3142 46.341 56.9573 46.1538 55.6807 46.4874L38.0683 51.0897C38.5857 44.9345 40.9992 39.0913 44.9763 34.365C48.9533 29.6388 54.2982 26.2623 60.2744 24.7006C66.2507 23.139 72.5641 23.4691 78.3449 25.6455C84.1257 27.8219 89.0893 31.7375 92.5517 36.8527L74.9345 41.4562C73.6579 41.7898 72.5661 42.6169 71.8993 43.7555C71.2325 44.894 71.0453 46.2509 71.3789 47.5275C71.7125 48.8041 72.5395 49.8959 73.6781 50.5627C74.8167 51.2295 76.1735 51.4167 77.4501 51.0831L96.7039 46.0519L99.2195 55.6788L79.9657 60.71C78.6891 61.0436 77.5973 61.8707 76.9305 63.0093C76.2637 64.1478 76.0765 65.5047 76.4101 66.7813C76.7437 68.0579 77.5707 69.1497 78.7093 69.8165C79.8479 70.4833 81.2047 70.6705 82.4813 70.3369L101.735 65.3057L104.251 74.9326Z" fill="url(#paint0_linear_396_3209)"/>
<defs>
<linearGradient id="paint0_linear_396_3209" x1="60.272" y1="24.7013" x2="85.4305" y2="120.98" gradientUnits="userSpaceOnUse">
<stop stop-color="#D40305"/>
<stop offset="1" stop-color="white"/>
</linearGradient>
</defs>
</svg>
